<svg id="Layer_1" data-name="Layer 1" xmlns="http://www.w3.org/2000/svg" viewBox="0 0 904 955.76"><defs><style>.cls-1{fill:#ffe7cf;}.cls-2,.cls-3{fill:none;}.cls-2{stroke:#000;stroke-linecap:round;stroke-linejoin:round;stroke-width:9.83px;}.cls-3{stroke:#f7931e;stroke-miterlimit:10;stroke-width:58.56px;}</style></defs><title>simpleshoplogo</title><ellipse class="cls-1" cx="454.35" cy="466.78" rx="442.58" ry="428.87"/><text x="-363" y="-23.08"></text><polygon points="348.42 678.89 187.67 379.48 208.36 368.59 369.11 668 348.42 678.89"/><rect x="124.77" y="368.89" width="82.4" height="23.31"/><rect x="244.83" y="443.48" width="461.42" height="23.31"/><rect x="348.42" y="655.58" width="270.73" height="23.31"/><polygon points="712.59 451.86 619.24 678.88 598.45 670.5 691.79 443.48 712.59 451.86"/><ellipse class="cls-2" cx="396.68" cy="706.86" rx="27.07" ry="27.97"/><ellipse class="cls-2" cx="570.89" cy="706.86" rx="27.07" ry="27.97"/><path d="M1067.49,466.56l-2.22,5.33,10,3.94,3.85-9.27Z" transform="translate(-363 -23.08)"/><path class="cls-3" d="M735,518.59c0,51.07,46.9,92.48,104.76,92.48s104.76-41.41,104.76-92.48-46.9-92.48-104.76-92.48" transform="translate(-363 -23.08)"/><path class="cls-3" d="M951.54,333c0-51.07-46.9-92.48-104.76-92.48S742,281.88,742,333s46.9,92.48,104.76,92.48" transform="translate(-363 -23.08)"/><text x="-363" y="-23.08"></text><text x="-363" y="-23.08"></text><rect x="117.71" y="580.99" width="117.71" height="16.32"/><rect x="94.17" y="620.62" width="197.75" height="16.32"/></svg>